<svg width="127" height="58" viewBox="0 0 127 58" fill="none" xmlns="http://www.w3.org/2000/svg">
<path d="M66.3494 20.4439L53.3024 34.693C48.3935 34.6799 44.3973 34.6799 41.3139 34.693C30.6361 33.622 29.0161 15.4619 42.9697 14.2334C43.7652 1.28258 56.5638 -1.36717 62.632 2.8581" stroke="white" stroke-width="2"/>
<path d="M48.377 22.2014L65.2155 4.73066C66.3412 5.83271 67.3944 7.4528 68.375 9.59091C71.6737 8.8314 77.6201 7.41108 82.4544 14.4748" stroke="white" stroke-width="2"/>
<path d="M75.8486 25.9039L83.8738 17.8465C83.8725 18.8133 83.8725 19.7849 83.8738 20.7613C91.4767 15.0555 101.172 29.6694 89.0312 34.693C83.4414 34.776 72.9402 34.776 57.5276 34.693" stroke="white" stroke-width="2"/>
<path d="M3.02856 43.5791C5.1788 42.4153 7.20792 43.1464 8.53179 44.5261" stroke="white" stroke-linecap="round"/>
<path d="M6.01562 55.9822C4.86477 56.3685 2.64897 56.5009 1.16906 54.563" stroke="white" stroke-linecap="round"/>
<path d="M1.64806 44.9233C1.64806 44.9233 0.566439 47.3815 4.37957 49.0528C10.4102 51.5847 7.68129 55.1962 7.68129 55.1962" stroke="white" stroke-linecap="round"/>
<path d="M41.9683 43.5791C44.1185 42.4153 46.1476 43.1464 47.4715 44.5261" stroke="white" stroke-linecap="round"/>
<path d="M44.9553 55.9822C43.8045 56.3685 41.5887 56.5009 40.1088 54.563" stroke="white" stroke-linecap="round"/>
<path d="M40.5878 44.9233C40.5878 44.9233 39.5061 47.3815 43.3193 49.0528C49.3499 51.5847 46.621 55.1962 46.621 55.1962" stroke="white" stroke-linecap="round"/>
<path d="M13.124 42.6206V56.9027" stroke="white" stroke-linecap="round"/>
<path d="M13.124 49.7616H19.6394" stroke="white" stroke-linecap="round"/>
<path d="M15.2478 43H21.1285" stroke="white" stroke-linecap="round"/>
<path d="M15.2478 57H21.1285" stroke="white" stroke-linecap="round"/>
<path d="M24.6133 46.5992V56.9027" stroke="white" stroke-linecap="round"/>
<path d="M34.6133 42.9197V53.2232" stroke="white" stroke-linecap="round"/>
<path d="M24.4585 42.7481L35.1813 56.8756" stroke="white" stroke-linecap="round"/>
<path d="M50.8914 42.8096L55.1687 49.5894V56.7699" stroke="white" stroke-linecap="round"/>
<path d="M56.5354 48.0141L60.0582 42.6898" stroke="white" stroke-linecap="round"/>
<path d="M64.6133 42.6206V56.9027" stroke="white" stroke-linecap="round"/>
<path d="M66.5308 43.1796C74.6467 41.9036 74.0439 48.3557 71.3365 49.489" stroke="white" stroke-linecap="round"/>
<path d="M66.5308 50.0117H69.4275L72.7752 56.9027" stroke="white" stroke-linecap="round"/>
<path d="M46.6133 25.9197C47.7179 25.9197 48.6133 25.0243 48.6133 23.9197C48.6133 22.8151 47.7179 21.9197 46.6133 21.9197C45.5087 21.9197 44.6133 22.8151 44.6133 23.9197C44.6133 25.0243 45.5087 25.9197 46.6133 25.9197Z" fill="#212945" stroke="white" stroke-width="2"/>
<path d="M67.6133 20.9197C68.7179 20.9197 69.6133 20.0243 69.6133 18.9197C69.6133 17.8151 68.7179 16.9197 67.6133 16.9197C66.5087 16.9197 65.6133 17.8151 65.6133 18.9197C65.6133 20.0243 66.5087 20.9197 67.6133 20.9197Z" fill="#212945" stroke="white" stroke-width="2"/>
<path d="M74.6133 28.9197C75.7179 28.9197 76.6133 28.0243 76.6133 26.9197C76.6133 25.8151 75.7179 24.9197 74.6133 24.9197C73.5087 24.9197 72.6133 25.8151 72.6133 26.9197C72.6133 28.0243 73.5087 28.9197 74.6133 28.9197Z" fill="#212945" stroke="white" stroke-width="2"/>
<path d="M89.5 42.6206V56.9027" stroke="white" stroke-linecap="round"/>
<path d="M89.5 49.7616H96.0154" stroke="white" stroke-linecap="round"/>
<path d="M91.6238 43H97.5045" stroke="white" stroke-linecap="round"/>
<path d="M91.6238 57H97.5045" stroke="white" stroke-linecap="round"/>
<path d="M81.031 44.9335V56.9027" stroke="white" stroke-linecap="round"/>
<path d="M75.8704 43.0133H85.7466" stroke="white" stroke-linecap="round"/>
<path d="M103.432 43.9572C104.106 43.2229 105.47 42.9037 107.526 42.9994C109.582 43.0952 110.944 43.8276 111.613 45.1967" stroke="white" stroke-linecap="round"/>
<path d="M103.552 55.5638C104.24 56.2026 105.614 56.4669 107.673 56.3568C109.733 56.2467 111.068 55.4745 111.679 54.0402" stroke="white" stroke-linecap="round"/>
<path d="M102.458 44.6572C100.978 45.7044 100.139 47.2486 99.94 49.2897C99.7408 51.3308 100.524 53.198 102.288 54.8914" stroke="white" stroke-linecap="round"/>
<path d="M115.612 42.6588V56.8305" stroke="white" stroke-linecap="round"/>
<path d="M125.613 42.6588V56.8305" stroke="white" stroke-linecap="round"/>
<path d="M115.612 49.7446H123.053" stroke="white" stroke-linecap="round"/>
</svg>
