<svg height="14" viewBox="0 0 20 14" width="20" xmlns="http://www.w3.org/2000/svg"><path d="m20.9648438 7.2734375c.2473958 0 .4492187-.08138021.6054687-.24414062.15625-.16276042.234375-.36783855.234375-.61523438s-.078125-.44921875-.234375-.60546875-.3580729-.234375-.6054687-.234375h-17.8320313c-.24739583 0-.44921875.078125-.60546875.234375s-.234375.35807292-.234375.60546875c0 .09114583.00651042.17252604.01953125.24414062.01302083.07161459.0390625.13997396.078125.20507813s.08463542.12369792.13671875.17578125c.15625.15625.35807292.234375.60546875.234375zm0 5.7773437c.2473958 0 .4492187-.078125.6054687-.234375s.234375-.3580729.234375-.6054687-.078125-.4492187-.234375-.6054687-.3580729-.234375-.6054687-.234375h-17.8320313c-.24739583 0-.44921875.078125-.60546875.234375s-.234375.3580729-.234375.6054687c0 .0520833.00325521.1009115.00976563.1464844.00651041.0455729.01627604.0878906.02929687.1269531s.02929687.078125.04882813.1171875c.01953124.0390625.0423177.078125.06835937.1171875s.05208333.0716146.078125.0976562c.15625.15625.35807292.234375.60546875.234375zm0 5.796875c.2473958 0 .4492187-.0813802.6054687-.2441406s.234375-.3678385.234375-.6152344c0-.2473958-.078125-.4492187-.234375-.6054687-.1692708-.15625-.3710937-.234375-.6054687-.234375h-17.8320313c-.24739583 0-.44921875.078125-.60546875.234375s-.234375.3580729-.234375.6054687v.1269532c0 .0325521.00651042.0683594.01953125.1074218.01302083.0390626.02604167.0748698.0390625.1074219s.02929688.0651042.04882812.0976563l.05859376.0976562c.01953124.0325521.0423177.061849.06835937.0878906.15625.15625.35807292.234375.60546875.234375z" fill="#404179" fill-rule="evenodd" transform="translate(-2 -5)"/></svg>