<?xml version="1.0" encoding="UTF-8"?>
<svg width="142px" height="73px" viewBox="0 0 142 73" version="1.1" xmlns="http://www.w3.org/2000/svg" xmlns:xlink="http://www.w3.org/1999/xlink">
    <title>Artboard</title>
    <defs>
        <filter id="filter-1">
            <feColorMatrix in="SourceGraphic" type="matrix" values="0 0 0 0 0.450980 0 0 0 0 0.376471 0 0 0 0 0.705882 0 0 0 1.000000 0"></feColorMatrix>
        </filter>
        <filter id="filter-2">
            <feColorMatrix in="SourceGraphic" type="matrix" values="0 0 0 0 0.501961 0 0 0 0 0.501961 0 0 0 0 0.501961 0 0 0 1.000000 0"></feColorMatrix>
        </filter>
    </defs>
    <g id="Artboard" stroke="none" stroke-width="1" fill="none" fill-rule="evenodd">
        <g id="Group-5" transform="translate(8.000000, 8.000000)">
            <path d="M66.2892462,19.4438879 L53.2423015,33.6929642 C48.3333941,33.6798671 44.3372075,33.6798671 41.2537416,33.6929642 C30.5760025,32.6219989 28.9559554,14.4618922 42.909619,13.2334469 C43.7050237,0.282576119 56.5036402,-2.36716885 62.5718608,1.85810126" id="Path" stroke="#7360B4" stroke-width="2"></path>
            <path d="M48.3167326,21.2013872 L65.1552993,3.73065684 C66.2810292,4.8327134 67.3341802,6.45279889 68.3147524,8.59091332 C71.6135106,7.83140166 77.5598867,6.41108018 82.3941694,13.4748151" id="Path-2" stroke="#7360B4" stroke-width="2"></path>
            <path d="M75.7882466,24.9038505 L83.8134985,16.8464821 C83.8121728,17.813347 83.8121728,18.7849459 83.8134985,19.7612789 C91.4163911,14.0555344 101.111391,28.6693724 88.9708631,33.6929642 C83.3810732,33.7759644 72.8798689,33.7759644 57.46725,33.6929642" id="Path-3" stroke="#808080" stroke-width="2"></path>
            <g filter="url(#filter-1)" id="Group-3" stroke-linecap="round">
                <g transform="translate(0.000000, 41.500000)">
                    <g id="Group-2" transform="translate(0.000000, 0.500000)" stroke="#979797">
                        <path d="M2.9684287,0.579134933 C5.11866581,-0.584732166 7.14778451,0.146415713 8.47165411,1.52612725" id="Path-4"></path>
                        <path d="M1,12.3889102 C2.08587842,11.8461482 4.26168579,11.4066643 5.99690826,13.1197854" id="Path-4-Copy-2" transform="translate(3.498454, 12.512288) scale(-1, -1) rotate(8.000000) translate(-3.498454, -12.512288) "></path>
                        <path d="M1.58773195,1.92330565 C1.58773195,1.92330565 0.506109491,4.38148505 4.31924332,6.05275415 C10.3498915,8.58470448 7.62095657,12.196204 7.62095657,12.196204" id="Path-5"></path>
                    </g>
                    <g id="Group-2-Copy" transform="translate(38.939767, 0.500000)" stroke="#979797">
                        <path d="M2.9684287,0.579134933 C5.11866581,-0.584732166 7.14778451,0.146415713 8.47165411,1.52612725" id="Path-4"></path>
                        <path d="M1,12.3889102 C2.08587842,11.8461482 4.26168579,11.4066643 5.99690826,13.1197854" id="Path-4-Copy-2" transform="translate(3.498454, 12.512288) scale(-1, -1) rotate(8.000000) translate(-3.498454, -12.512288) "></path>
                        <path d="M1.58773195,1.92330565 C1.58773195,1.92330565 0.506109491,4.38148505 4.31924332,6.05275415 C10.3498915,8.58470448 7.62095657,12.196204 7.62095657,12.196204" id="Path-5"></path>
                    </g>
                    <g id="Group" transform="translate(12.563887, 0.000000)" stroke="#979797">
                        <line x1="0.5" y1="0.120557404" x2="0.5" y2="14.4027188" id="Path-7"></line>
                        <line x1="0.5" y1="7.2616381" x2="7.01535242" y2="7.2616381" id="Path-8"></line>
                        <line x1="2.62370551" y1="0.5" x2="8.50440769" y2="0.5" id="Path-8-Copy"></line>
                        <line x1="2.62370551" y1="14.5" x2="8.50440769" y2="14.5" id="Path-8-Copy-2"></line>
                    </g>
                    <line x1="24.552942" y1="4.09918156" x2="24.552942" y2="14.4027188" id="Path-7-Copy" stroke="#979797"></line>
                    <line x1="34.552942" y1="0.419685858" x2="34.552942" y2="10.7232231" id="Path-7-Copy-2" stroke="#979797"></line>
                    <line x1="24.3982255" y1="0.248130723" x2="35.1210564" y2="14.3756316" id="Path-7-Copy-3" stroke="#979797"></line>
                    <polyline id="Path-9" stroke="#979797" points="50.8311656 0.309602985 55.1085552 7.08941657 55.1085552 14.2699038"></polyline>
                    <line x1="56.475091" y1="5.51407333" x2="59.9978752" y2="0.189788721" id="Path-10" stroke="#979797"></line>
                    <line x1="64.552942" y1="0.120557404" x2="64.552942" y2="14.4027188" id="Path-11" stroke="#979797"></line>
                    <path d="M66.4705497,0.679565238 C74.5864503,-0.596420988 73.9837312,5.85565541 71.2762626,6.98895989" id="Path-12" stroke="#979797"></path>
                    <polyline id="Path-13" stroke="#979797" points="66.4705497 7.511678 69.3672875 7.511678 72.7150058 14.4027188"></polyline>
                </g>
            </g>
            <circle id="Oval" stroke="#7360B4" stroke-width="2" fill="#FFFFFF" cx="46.552942" cy="22.9196859" r="2"></circle>
            <circle id="Oval-Copy" stroke="#7360B4" stroke-width="2" fill="#FFFFFF" cx="67.552942" cy="17.9196859" r="2"></circle>
            <circle id="Oval-Copy-2" stroke="#808080" stroke-width="2" fill="#FFFFFF" cx="74.552942" cy="25.9196859" r="2"></circle>
            <g filter="url(#filter-2)" id="Group-4" stroke-linecap="round">
                <g transform="translate(75.810188, 41.500000)">
                    <g id="Group-Copy" transform="translate(13.129580, 0.000000)" stroke="#979797">
                        <line x1="0.5" y1="0.120557404" x2="0.5" y2="14.4027188" id="Path-7"></line>
                        <line x1="0.5" y1="7.2616381" x2="7.01535242" y2="7.2616381" id="Path-8"></line>
                        <line x1="2.62370551" y1="0.5" x2="8.50440769" y2="0.5" id="Path-8-Copy"></line>
                        <line x1="2.62370551" y1="14.5" x2="8.50440769" y2="14.5" id="Path-8-Copy-2"></line>
                    </g>
                    <line x1="5.16066582" y1="2.43347258" x2="5.16066582" y2="14.4027188" id="Path-14" stroke="#979797"></line>
                    <line x1="-2.84217094e-14" y1="0.51331966" x2="9.87626273" y2="0.51331966" id="Path-15" stroke="#979797"></line>
                    <path d="M27.5616824,1.45715772 C28.2352322,0.722936397 29.5999658,0.403693324 31.6558832,0.499428496 C33.7118006,0.595163668 35.0738677,1.32760205 35.7420845,2.69674363" id="Path-16" stroke="#979797"></path>
                    <path d="M27.6812627,12.3574118 C28.3695954,11.7186639 29.7435528,11.4543457 31.8031349,11.5644569 C33.862717,11.6745682 35.1980129,12.4467743 35.8090225,13.8810751" id="Path-16" stroke="#979797" transform="translate(31.745143, 12.710623) scale(1, -1) translate(-31.745143, -12.710623) "></path>
                    <path d="M26.5876563,2.15716148 C25.1080534,3.20442277 24.2686844,4.748603 24.0695492,6.78970219 C23.870414,8.83080138 24.6531945,10.6980435 26.4178909,12.3914285" id="Path-17" stroke="#979797"></path>
                    <line x1="39.7414617" y1="0.158820368" x2="39.7414617" y2="14.3304606" id="Path-18" stroke="#979797"></line>
                    <line x1="49.7427542" y1="0.158820368" x2="49.7427542" y2="14.3304606" id="Path-18-Copy" stroke="#979797"></line>
                    <line x1="39.7414617" y1="7.24464048" x2="47.1831308" y2="7.24464048" id="Path-19" stroke="#979797"></line>
                </g>
            </g>
        </g>
    </g>
</svg>