<svg height="13" viewBox="0 0 18 13" width="18" xmlns="http://www.w3.org/2000/svg"><path d="m5.02766667 5.27895833c-1.32675 1.32666667-2.05741667 3.09166667-2.05741667 4.97083337 0 1.8783333.73066667 3.6433333 2.05741667 4.97.2545.255.2545.6675 0 .9216666-.25425.2541667-.66691667.255-.92175 0-1.573-1.5725-2.43925-3.665-2.43925-5.8916666 0-2.2266667.86625-4.32000003 2.43925-5.89250003.2545-.25416667.66725-.25416667.92175 0 .2545.255.2545.6675 0 .92166666zm10.86641663-.92166666c-.2545-.25416667-.66725-.25416667-.92175 0-.2545.255-.2545.6675 0 .92166666 1.32675 1.32666667 2.0574167 3.09166667 2.0574167 4.97083337 0 1.8783333-.7306667 3.6433333-2.0574167 4.97-.2545.255-.2545.6675 0 .9216666.2545.255.6671667.255.92175 0 1.573-1.5725 2.43925-3.665 2.43925-5.8916666 0-2.22750003-.8663333-4.32000003-2.43925-5.89250003zm-1.975 1.975c-.2545833-.25416667-.66725-.25416667-.92175 0-.2545833.255-.2545.6675 0 .92166666.7995.79916667 1.2398334 1.86333334 1.2398334 2.99583337 0 1.1316666-.4403334 2.1958333-1.2398334 2.995-.2545833.2541666-.2545833.6675 0 .9216666.2545.2541667.6671667.255.92175 0 1.0456667-1.0458333 1.6215834-2.4366666 1.6215834-3.9166666 0-1.48083337-.5759167-2.8716667-1.6215834-3.91750003zm-6.91641663 0c-.2545-.25416667-.66716667-.25416667-.92175 0-1.04566667 1.04583333-1.62158334 2.43666666-1.62158334 3.91750003 0 1.48.57591667 2.8708333 1.62158334 3.9166666.25491666.255.66758333.2541667.92175 0 .25458333-.2541666.2545-.6666666 0-.9216666-.7995-.7991667-1.23983334-1.8633334-1.23983334-2.995 0-1.13250003.44033334-2.19583337 1.23983334-2.99583337.2545-.25416666.2545-.66666666 0-.92166666zm.25116666 3.91750003c0-1.5141667 1.23191667-2.7466667 2.74616667-2.7466667s2.7461667 1.2325 2.7461667 2.7466667c0 1.5141666-1.232 2.7458333-2.7461667 2.7458333-1.51425 0-2.74616667-1.2316667-2.74616667-2.7458333zm1.3035 0c0 .795.64716667 1.4425 1.44266667 1.4425s1.4425833-.6475 1.4425833-1.4425c0-.79583337-.6471666-1.44333337-1.4425833-1.44333337-.79541667 0-1.44266667.6475-1.44266667 1.44333337z" fill="#7070a5" fill-rule="evenodd" transform="translate(-1 -4)"/></svg>