<?xml version="1.0" encoding="UTF-8"?>
<svg width="24px" height="24px" viewBox="0 0 24 24" version="1.1" xmlns="http://www.w3.org/2000/svg" xmlns:xlink="http://www.w3.org/1999/xlink">
    <title>Icons / Utility / Upload</title>
    <g id="Icons-/-Utility-/-Upload" stroke="none" stroke-width="1" fill="none" fill-rule="evenodd">
        <g id="backup-24px" transform="translate(1.000000, 1.000000)">
            <polygon id="Path" points="0 0 22 0 22 22 0 22"></polygon>
            <path d="M17.7375,9.20333333 C17.1141667,6.04083333 14.3366667,3.66666667 11,3.66666667 C8.35083333,3.66666667 6.05,5.17 4.90416667,7.37 C2.145,7.66333333 0,10.0008333 0,12.8333333 C0,15.8675 2.46583333,18.3333333 5.5,18.3333333 L17.4166667,18.3333333 C19.9466667,18.3333333 22,16.28 22,13.75 C22,11.33 20.1208333,9.36833333 17.7375,9.20333333 Z M17.4166667,16.5 L5.5,16.5 C3.47416667,16.5 1.83333333,14.8591667 1.83333333,12.8333333 C1.83333333,10.9541667 3.23583333,9.38666667 5.09666667,9.19416667 L6.0775,9.09333333 L6.53583333,8.2225 C7.40666667,6.545 9.11166667,5.5 11,5.5 C13.4016667,5.5 15.4733333,7.205 15.9408333,9.56083333 L16.2158333,10.9358333 L17.6183333,11.0366667 C19.0483333,11.1283333 20.1666667,12.3291667 20.1666667,13.75 C20.1666667,15.2625 18.9291667,16.5 17.4166667,16.5 Z M7.33333333,11.9166667 L9.67083333,11.9166667 L9.67083333,14.6666667 L12.3291667,14.6666667 L12.3291667,11.9166667 L14.6666667,11.9166667 L11,8.25 L7.33333333,11.9166667 Z" id="Shape" fill="#B1B1C7"></path>
        </g>
    </g>
</svg>