<?xml version="1.0" encoding="UTF-8"?>
<svg width="24px" height="24px" viewBox="0 0 24 24" version="1.1" xmlns="http://www.w3.org/2000/svg" xmlns:xlink="http://www.w3.org/1999/xlink">
    <title>Icons / Sidebar / Settings / Inactive</title>
    <g id="Icons-/-Sidebar-/-Settings-/-Inactive" stroke="none" stroke-width="1" fill="none" fill-rule="evenodd">
        <path d="M22,11.167 L20.3333,11.167 C20.1676,9.54 19.5271,7.998 18.4917,6.733 L19.7,5.517 L18.4833,4.342 L17.2667,5.55 C16.0015,4.515 14.4598,3.874 12.8333,3.708 L12.8333,2 L11.1667,2 L11.1667,3.708 C9.5402,3.874 7.9985,4.515 6.7333,5.55 L5.5167,4.342 L4.3417,5.517 L5.55,6.733 C4.5145,7.998 3.8741,9.54 3.7083,11.167 L2,11.167 L2,12.833 L3.7083,12.833 C3.8741,14.46 4.5145,16.002 5.55,17.267 L4.3417,18.483 L5.5167,19.658 L6.7333,18.45 C7.9935,19.5 9.5357,20.156 11.1667,20.333 L11.1667,22 L12.8333,22 L12.8333,20.333 C14.4598,20.168 16.0015,19.527 17.2667,18.492 L18.4833,19.7 L19.6583,18.525 L18.45,17.308 C19.508,16.037 20.1636,14.479 20.3333,12.833 L22,12.833 L22,11.167 Z M12,18.667 C8.3181,18.667 5.3333,15.682 5.3333,12 C5.3333,8.318 8.3181,5.333 12,5.333 C15.6819,5.333 18.6667,8.318 18.6667,12 C18.6667,13.768 17.9643,15.464 16.714,16.714 C15.4638,17.964 13.7681,18.667 12,18.667 Z M12,7.833 C9.6988,7.833 7.8333,9.699 7.8333,12 C7.8333,14.301 9.6988,16.167 12,16.167 C14.3012,16.167 16.1667,14.301 16.1667,12 C16.1667,10.895 15.7277,9.835 14.9463,9.054 C14.1649,8.272 13.1051,7.833 12,7.833 Z M12,14.5 C10.6193,14.5 9.5,13.381 9.5,12 C9.5,10.619 10.6193,9.5 12,9.5 C13.3807,9.5 14.5,10.619 14.5,12 C14.5,12.663 14.2366,13.299 13.7678,13.768 C13.2989,14.237 12.663,14.5 12,14.5 Z" id="Shape" fill="#B1B1C7"></path>
    </g>
</svg>