<?xml version="1.0" encoding="UTF-8"?>
<svg width="24px" height="24px" viewBox="0 0 24 24" version="1.1" xmlns="http://www.w3.org/2000/svg" xmlns:xlink="http://www.w3.org/1999/xlink">
    <title>Icons / Sidebar / Assets / Inactive</title>
    <g id="Icons-/-Sidebar-/-Assets-/-Inactive" stroke="none" stroke-width="1" fill="none" fill-rule="evenodd">
        <g id="Group-3">
            <rect id="Rectangle" x="0" y="0" width="24" height="24"></rect>
            <path d="M22,12.0212658 C22,12.4435443 21.6631921,12.8020253 21.2210876,12.8020253 L19.5578652,12.8020253 L19.5578652,15.0805063 L21.1789488,15.0805063 C21.6000344,15.0805063 21.9578611,15.4389873 21.9578611,15.8612658 C21.9578611,16.2825316 21.6210533,16.6410127 21.1789488,16.6410127 L19.5578652,16.6410127 L19.5578652,16.8739241 C19.5578652,18.3716456 18.3368483,19.5949367 16.8420803,19.5949367 L16.6105691,19.5949367 L16.6105691,21.2192405 C16.6105691,21.641519 16.2736602,22 15.8315557,22 C15.4105711,22 15.0526433,21.6627848 15.0526433,21.2192405 L15.0526433,19.5949367 L12.757944,19.5949367 L12.757944,21.2192405 C12.757944,21.641519 12.4000162,22 11.9789306,22 C11.557946,22 11.2000182,21.6627848 11.2000182,21.2192405 L11.2000182,19.5949367 L8.9053189,19.5949367 L8.9053189,21.2192405 C8.9053189,21.641519 8.54739108,22 8.12630547,22 C7.70532092,22 7.3473931,21.6627848 7.3473931,21.2192405 L7.3473931,19.5949367 L7.11578086,19.5949367 C5.6211139,19.5949367 4.39999596,18.3716456 4.39999596,16.8739241 L4.39999596,16.6410127 L2.77901342,16.6410127 C2.35792782,16.6410127 2,16.2825316 2,15.8612658 C2,15.4389873 2.33690891,15.0805063 2.77901342,15.0805063 L4.39999596,15.0805063 L4.39999596,12.7807595 L2.77901342,12.7807595 C2.35792782,12.7807595 2,12.4222785 2,12 C2,11.5777215 2.33690891,11.2192405 2.77901342,11.2192405 L4.39999596,11.2192405 L4.39999596,8.91949367 L2.77901342,8.91949367 C2.35792782,8.91949367 2,8.56101266 2,8.13974684 C2,7.71746835 2.33690891,7.35898734 2.77901342,7.35898734 L4.42111592,7.35898734 L4.42111592,7.12708861 C4.42111592,5.62835443 5.64213281,4.40506329 7.13690082,4.40506329 L7.36841201,4.40506329 L7.36841201,2.78075949 C7.36841201,2.35848101 7.72633983,2 8.14742544,2 C8.56840999,2 8.92633781,2.33721519 8.92633781,2.78075949 L8.92633781,4.40506329 L11.2210371,4.40506329 L11.2210371,2.78075949 C11.2210371,2.35848101 11.5789649,2 12.0000505,2 C12.4210351,2 12.7789629,2.33721519 12.7789629,2.78075949 L12.7789629,4.40506329 L15.0947822,4.40506329 L15.0947822,2.78075949 C15.0947822,2.35848101 15.43159,2 15.8736945,2 C16.2947801,2 16.6526069,2.33721519 16.6526069,2.78075949 L16.6526069,4.42632911 L16.8842191,4.42632911 C18.3789872,4.42632911 19.600004,5.64962025 19.600004,7.14734177 L19.600004,7.38025316 L21.2210876,7.38025316 C21.6420722,7.38025316 22,7.73873418 22,8.16 C22,8.58227848 21.6631921,8.94075949 21.2210876,8.94075949 L19.600004,8.94075949 L19.600004,11.2405063 L21.2210876,11.2405063 C21.6420722,11.2405063 22,11.5989873 22,12.0212658 Z M16.8842191,18.0546835 C17.515797,18.0546835 18.0210593,17.5483544 18.0210593,16.915443 L18.0210593,7.12708861 C18.0210593,6.49417722 17.515797,5.9878481 16.8842191,5.9878481 L7.11578086,5.9878481 C6.48420297,5.9878481 5.97894067,6.49417722 5.97894067,7.12708861 L5.97894067,16.915443 C5.97894067,17.5483544 6.48420297,18.0546835 7.11578086,18.0546835 L16.8842191,18.0546835 Z M9.0736723,8.28658228 L14.9263277,8.28658228 C15.3684322,8.28658228 15.72636,8.64607595 15.72636,9.08860759 L15.72636,14.9539241 C15.72636,15.3751899 15.3894511,15.7346835 14.9473466,15.7346835 L9.0736723,15.7346835 C8.65268774,15.7346835 8.29475992,15.3964557 8.29475992,14.9539241 L8.29475992,9.06734177 C8.29475992,8.64607595 8.63156778,8.28658228 9.0736723,8.28658228 Z M9.85268572,14.1731646 L14.1474153,14.1731646 L14.1474153,9.86936709 L9.85268572,9.86936709 L9.85268572,14.1731646 Z" id="Shape" fill="#B1B1C7"></path>
        </g>
    </g>
</svg>