<?xml version="1.0" encoding="UTF-8"?>
<svg width="24px" height="24px" viewBox="0 0 24 24" version="1.1" xmlns="http://www.w3.org/2000/svg" xmlns:xlink="http://www.w3.org/1999/xlink">
    <title>Icons / Sidebar / Sensors / Active</title>
    <g id="Icons-/-Sidebar-/-Sensors-/-Active" stroke="none" stroke-width="1" fill="none" fill-rule="evenodd">
        <path d="M6.0332,6.33475 C4.4411,7.92675 3.5643,10.04475 3.5643,12.29975 C3.5643,14.55375 4.4411,16.67175 6.0332,18.26375 C6.3386,18.56975 6.3386,19.06475 6.0332,19.36975 C5.7281,19.67475 5.2329,19.67575 4.9271,19.36975 C3.0395,17.48275 2,14.97175 2,12.29975 C2,9.62775 3.0395,7.11575 4.9271,5.22875 C5.2325,4.92375 5.7278,4.92375 6.0332,5.22875 C6.3386,5.53475 6.3386,6.02975 6.0332,6.33475 Z M19.0729,5.22875 C18.7675,4.92375 18.2722,4.92375 17.9668,5.22875 C17.6614,5.53475 17.6614,6.02975 17.9668,6.33475 C19.5589,7.92675 20.4357,10.04475 20.4357,12.29975 C20.4357,14.55375 19.5589,16.67175 17.9668,18.26375 C17.6614,18.56975 17.6614,19.06475 17.9668,19.36975 C18.2722,19.67575 18.7674,19.67575 19.0729,19.36975 C20.9605,17.48275 22,14.97175 22,12.29975 C22,9.62675 20.9604,7.11575 19.0729,5.22875 Z M16.7029,7.59875 C16.3974,7.29375 15.9022,7.29375 15.5968,7.59875 C15.2913,7.90475 15.2914,8.39975 15.5968,8.70475 C16.5562,9.66375 17.0846,10.94075 17.0846,12.29975 C17.0846,13.65775 16.5562,14.93475 15.5968,15.89375 C15.2913,16.19875 15.2913,16.69475 15.5968,16.99975 C15.9022,17.30475 16.3974,17.30575 16.7029,16.99975 C17.9577,15.74475 18.6488,14.07575 18.6488,12.29975 C18.6488,10.52275 17.9577,8.85375 16.7029,7.59875 Z M8.4032,7.59875 C8.0978,7.29375 7.6026,7.29375 7.2971,7.59875 C6.0423,8.85375 5.3512,10.52275 5.3512,12.29975 C5.3512,14.07575 6.0423,15.74475 7.2971,16.99975 C7.603,17.30575 8.0982,17.30475 8.4032,16.99975 C8.7087,16.69475 8.7086,16.19975 8.4032,15.89375 C7.4438,14.93475 6.9154,13.65775 6.9154,12.29975 C6.9154,10.94075 7.4438,9.66475 8.4032,8.70475 C8.7086,8.39975 8.7086,7.90475 8.4032,7.59875 Z M8.7046,12.29975 C8.7046,10.48275 10.1829,9.00375 12,9.00375 C13.8171,9.00375 15.2954,10.48275 15.2954,12.29975 C15.2954,14.11675 13.817,15.59475 12,15.59475 C10.1829,15.59475 8.7046,14.11675 8.7046,12.29975 Z M10.2688,12.29975 C10.2688,13.25375 11.0454,14.03075 12,14.03075 C12.9546,14.03075 13.7311,13.25375 13.7311,12.29975 C13.7311,11.34475 12.9545,10.56775 12,10.56775 C11.0455,10.56775 10.2688,11.34475 10.2688,12.29975 Z" id="Shape" fill="#8168D4"></path>
        <path d="M10.2688,12.29975 C10.2688,13.25375 11.0454,14.03075 12,14.03075 C12.9546,14.03075 13.7311,13.25375 13.7311,12.29975 C13.7311,11.34475 12.9545,10.56775 12,10.56775 C11.0455,10.56775 10.2688,11.34475 10.2688,12.29975 Z" id="Path" fill="#8168D4" opacity="0.200000003"></path>
    </g>
</svg>