<?xml version="1.0" encoding="UTF-8"?>
<svg width="36px" height="36px" viewBox="0 0 36 36" version="1.1" xmlns="http://www.w3.org/2000/svg" xmlns:xlink="http://www.w3.org/1999/xlink">
    <title>arrow-danger</title>
    <g id="Assets" stroke="none" stroke-width="1" fill="none" fill-rule="evenodd">
        <g id="Assets-01" transform="translate(-1137.000000, -290.000000)">
            <g id="Group-18" transform="translate(298.000000, 262.000000)">
                <g id="Group-13" transform="translate(839.000000, 25.000000)">
                    <g id="arrow-danger" transform="translate(0.000000, 3.000000)">
                        <circle id="Oval" fill="#FEEDED" cx="18" cy="18" r="18"></circle>
                        <g id="Group" transform="translate(8.000000, 8.000000)">
                            <g id="arrow_upward-24px" transform="translate(-0.000000, -0.000000)">
                                <polygon id="Path" points="0 0 20 0 20 20 0 20"></polygon>
                                <path d="M10.8333333,15.8333333 L10.8333333,6.525 L14.9,10.5916667 C15.225,10.9166667 15.7583333,10.9166667 16.0833333,10.5916667 C16.4083333,10.2666667 16.4083333,9.74166667 16.0833333,9.41666667 L10.5916667,3.925 C10.2666667,3.6 9.74166667,3.6 9.41666667,3.925 L3.91666667,9.40833333 C3.59166667,9.73333333 3.59166667,10.2583333 3.91666667,10.5833333 C4.24166667,10.9083333 4.76666667,10.9083333 5.09166667,10.5833333 L9.16666667,6.525 L9.16666667,15.8333333 C9.16666667,16.2916667 9.54166667,16.6666667 10,16.6666667 C10.4583333,16.6666667 10.8333333,16.2916667 10.8333333,15.8333333 Z" id="Path" fill="#F64E4C"></path>
                            </g>
                        </g>
                    </g>
                </g>
            </g>
        </g>
    </g>
</svg>