<?xml version="1.0" encoding="UTF-8"?>
<svg width="28px" height="28px" viewBox="0 0 28 28" version="1.1" xmlns="http://www.w3.org/2000/svg" xmlns:xlink="http://www.w3.org/1999/xlink">
    <title>operators-filled</title>
    <g id="Assets" stroke="none" stroke-width="1" fill="none" fill-rule="evenodd">
        <g id="Assets-01" transform="translate(-548.000000, -376.000000)">
            <g id="Group-18" transform="translate(298.000000, 262.000000)">
                <g id="operators-filled" transform="translate(250.000000, 114.000000)">
                    <circle id="Oval" fill="#F2EFFA" cx="14" cy="14" r="14"></circle>
                    <g id="Icons-/-Sidebar-/-Sensors-/-Inactive" transform="translate(6.000000, 6.000000)" fill="#8168D4">
                        <path d="M9.96002,7.8386 C11.07404,6.9974 11.52542,5.5382 11.08124,4.2152 C10.63706,2.8916 9.39662,2 8,2 C6.60338,2 5.36294,2.8916 4.91876,4.2152 C4.47458,5.5382 4.92596,6.9974 6.03998,7.8386 C3.62414,8.6732 2.00246,10.946 2,13.5002 L2,14 L14,14 L14,13.5002 C13.99754,10.946 12.37586,8.6732 9.96002,7.8386 Z M8,3.0068 C9.24266,3.0068 10.25,4.0136 10.25,5.2556 C10.25,6.4976 9.24266,7.5038 8,7.5038 C6.75734,7.5038 5.75,6.4976 5.75,5.2556 C5.75276,4.0148 6.75848,3.0098 8,3.0068 Z M3.02498,13.0004 C3.28268,10.4378 5.4476,8.4908 8.02502,8.5034 C10.60238,8.4908 12.7673,10.4378 13.025,13.0004 L3.02498,13.0004 Z" id="Shape"></path>
                    </g>
                </g>
            </g>
        </g>
    </g>
</svg>