<?xml version="1.0" encoding="UTF-8"?>
<svg width="28px" height="28px" viewBox="0 0 28 28" version="1.1" xmlns="http://www.w3.org/2000/svg" xmlns:xlink="http://www.w3.org/1999/xlink">
    <title>sensors-filled</title>
    <g id="Assets" stroke="none" stroke-width="1" fill="none" fill-rule="evenodd">
        <g id="Assets-01" transform="translate(-684.000000, -376.000000)">
            <g id="Group-18" transform="translate(298.000000, 262.000000)">
                <g id="sensors-filled" transform="translate(386.000000, 114.000000)">
                    <circle id="Oval" fill="#F2EFFA" cx="14" cy="14" r="14"></circle>
                    <g id="Icons-/-Sidebar-/-Sensors-/-Inactive" transform="translate(6.000000, 6.000000)" fill="#8168D4">
                        <path d="M4.02213333,4.22316667 C2.96073333,5.2845 2.3762,6.6965 2.3762,8.19983333 C2.3762,9.7025 2.96073333,11.1145 4.02213333,12.1758333 C4.22573333,12.3798333 4.22573333,12.7098333 4.02213333,12.9131667 C3.81873333,13.1165 3.4886,13.1171667 3.28473333,12.9131667 C2.02633333,11.6551667 1.33333333,9.98116667 1.33333333,8.19983333 C1.33333333,6.4185 2.02633333,4.74383333 3.28473333,3.48583333 C3.48833333,3.2825 3.81853333,3.2825 4.02213333,3.48583333 C4.22573333,3.68983333 4.22573333,4.01983333 4.02213333,4.22316667 Z M12.7152667,3.48583333 C12.5116667,3.2825 12.1814667,3.2825 11.9778667,3.48583333 C11.7742667,3.68983333 11.7742667,4.01983333 11.9778667,4.22316667 C13.0392667,5.2845 13.6238,6.6965 13.6238,8.19983333 C13.6238,9.7025 13.0392667,11.1145 11.9778667,12.1758333 C11.7742667,12.3798333 11.7742667,12.7098333 11.9778667,12.9131667 C12.1814667,13.1171667 12.5116,13.1171667 12.7152667,12.9131667 C13.9736667,11.6551667 14.6666667,9.98116667 14.6666667,8.19983333 C14.6666667,6.41783333 13.9736,4.74383333 12.7152667,3.48583333 Z M11.1352667,5.06583333 C10.9316,4.8625 10.6014667,4.8625 10.3978667,5.06583333 C10.1942,5.26983333 10.1942667,5.59983333 10.3978667,5.80316667 C11.0374667,6.4425 11.3897333,7.29383333 11.3897333,8.19983333 C11.3897333,9.10516667 11.0374667,9.9565 10.3978667,10.5958333 C10.1942,10.7991667 10.1942,11.1298333 10.3978667,11.3331667 C10.6014667,11.5365 10.9316,11.5371667 11.1352667,11.3331667 C11.9718,10.4965 12.4325333,9.38383333 12.4325333,8.19983333 C12.4325333,7.01516667 11.9718,5.9025 11.1352667,5.06583333 Z M5.60213333,5.06583333 C5.39853333,4.8625 5.0684,4.8625 4.86473333,5.06583333 C4.0282,5.9025 3.56746667,7.01516667 3.56746667,8.19983333 C3.56746667,9.38383333 4.0282,10.4965 4.86473333,11.3331667 C5.06866667,11.5371667 5.3988,11.5365 5.60213333,11.3331667 C5.8058,11.1298333 5.80573333,10.7998333 5.60213333,10.5958333 C4.96253333,9.9565 4.61026667,9.10516667 4.61026667,8.19983333 C4.61026667,7.29383333 4.96253333,6.44316667 5.60213333,5.80316667 C5.80573333,5.59983333 5.80573333,5.26983333 5.60213333,5.06583333 Z M5.80306667,8.19983333 C5.80306667,6.9885 6.7886,6.0025 8,6.0025 C9.2114,6.0025 10.1969333,6.9885 10.1969333,8.19983333 C10.1969333,9.41116667 9.21133333,10.3965 8,10.3965 C6.7886,10.3965 5.80306667,9.41116667 5.80306667,8.19983333 Z M6.84586667,8.19983333 C6.84586667,8.83583333 7.3636,9.35383333 8,9.35383333 C8.6364,9.35383333 9.15406667,8.83583333 9.15406667,8.19983333 C9.15406667,7.56316667 8.63633333,7.04516667 8,7.04516667 C7.36366667,7.04516667 6.84586667,7.56316667 6.84586667,8.19983333 Z" id="Shape"></path>
                    </g>
                </g>
            </g>
        </g>
    </g>
</svg>