<svg xmlns="http://www.w3.org/2000/svg" width="465.336" height="400.655" viewBox="0 0 465.336 400.655">
  <g id="login-graphic" transform="translate(-0.132 -0.817)">
    <g id="freepik--background-simple--inject-2" transform="translate(13.2)">
      <path id="Path" d="M246.872,23.483c42.744-16.452,97.044-33.492,143.5,24,37.68,46.632,15.168,103.536-13.692,131.136-33.24,31.776-88.8,15.18-133.848,29.916-45.828,15-28.8,82.332-74.94,93.912C123.044,313.715,56.5,261.191,29.108,223.055c-33.6-46.8-32.664-97.56-24-139.032,9.18-44.184,32.82-85.128,92.592-84C153.08,1.163,196.2,42.995,246.872,23.483Z" transform="translate(0.52 0.817)" fill="#e2deff"/>
    </g>
    <g id="freepik--Shadow--inject-2" transform="translate(0 374.2)">
      <ellipse id="freepik--path--inject-2" cx="232.668" cy="13.584" rx="232.668" ry="13.584" transform="translate(0.132 0.104)" fill="#e2deff"/>
    </g>
    <g id="freepik--assembly-line--inject-2" transform="translate(116.4 85.2)">
      <path id="Path-2" data-name="Path" d="M5.628,11.268H118.176V0H5.628A5.628,5.628,0,0,0,0,5.628H0a5.628,5.628,0,0,0,5.628,5.64Z" transform="translate(0.216 125.892)" fill="#263238"/>
      <rect id="Rectangle" width="7.176" height="163.932" transform="translate(56.508 301.08) rotate(180)" fill="#6a57ff"/>
      <rect id="Rectangle-2" data-name="Rectangle" width="7.176" height="163.932" transform="translate(56.508 301.08) rotate(180)" fill="#fff" opacity="0.7"/>
      <rect id="Rectangle-3" data-name="Rectangle" width="7.176" height="163.932" transform="translate(20.892 301.08) rotate(180)" fill="#6a57ff"/>
      <rect id="Rectangle-4" data-name="Rectangle" width="7.176" height="163.932" transform="translate(20.892 301.08) rotate(180)" fill="#fff" opacity="0.7"/>
      <circle id="Oval" cx="3.66" cy="3.66" r="3.66" transform="translate(2.184 127.86)" fill="#6a57ff"/>
      <path id="Path-3" data-name="Path" d="M0,3.6A3.6,3.6,0,1,0,1.076,1.033,3.6,3.6,0,0,0,0,3.6Z" transform="translate(18.264 127.92)" fill="#6a57ff"/>
      <circle id="Oval-2" data-name="Oval" cx="3.66" cy="3.66" r="3.66" transform="translate(34.344 127.86)" fill="#6a57ff"/>
      <circle id="Oval-3" data-name="Oval" cx="3.66" cy="3.66" r="3.66" transform="translate(50.424 127.86)" fill="#6a57ff"/>
      <circle id="Oval-4" data-name="Oval" cx="3.66" cy="3.66" r="3.66" transform="translate(66.492 127.86)" fill="#6a57ff"/>
      <circle id="Oval-5" data-name="Oval" cx="3.66" cy="3.66" r="3.66" transform="translate(82.572 127.86)" fill="#6a57ff"/>
      <circle id="Oval-6" data-name="Oval" cx="3.66" cy="3.66" r="3.66" transform="translate(98.652 127.86)" fill="#6a57ff"/>
      <path id="Path-4" data-name="Path" d="M3.654,0V7.308A3.654,3.654,0,1,1,3.654,0Z" transform="translate(114.738 127.872)" fill="#6a57ff"/>
      <rect id="Rectangle-5" data-name="Rectangle" width="7.452" height="1.2" transform="translate(166.128 0.684)" fill="#6a57ff"/>
      <rect id="Rectangle-6" data-name="Rectangle" width="24" height="1.2" transform="translate(135.204 0.684)" fill="#6a57ff"/>
      <path id="Path-5" data-name="Path" d="M9.876,0H125.328a9.852,9.852,0,0,1,9.852,9.852V296.2H0V9.852A9.852,9.852,0,0,1,9.876,0Z" transform="translate(79.2 4.884)" fill="#6a57ff"/>
      <path id="Path-6" data-name="Path" d="M37.392,86.916H0V85.8H36.288V0h1.1V86.916Z" transform="translate(79.224 4.884)" fill="#fff" opacity="0.2"/>
      <path id="Path-7" data-name="Path" d="M9.852,0h21.1A9.852,9.852,0,0,1,40.8,9.852V296.2H0V9.852A9.852,9.852,0,0,1,9.852,0Z" transform="translate(173.58 4.884)" fill="#263238" opacity="0.4"/>
      <path id="Path-8" data-name="Path" d="M4.788,0h14.82a4.8,4.8,0,0,1,4.8,4.8V94.992H0V4.8A4.8,4.8,0,0,1,4.788,0Z" transform="translate(181.788 54)" fill="#6a57ff"/>
      <path id="Path-9" data-name="Path" d="M4.788,0h12.84a4.8,4.8,0,0,1,4.8,4.8V94.992H0V4.8A4.8,4.8,0,0,1,4.8,0Z" transform="translate(181.788 54)"/>
      <path id="Path-10" data-name="Path" d="M41.832,135.252H0V0H41.832V1.1H1.1V134.148H41.832v1.1Z" transform="translate(131.748 149.688)" fill="#fff" opacity="0.2"/>
      <path id="Shape" d="M6.984,13.992a7,7,0,1,1,.01,0Z" transform="translate(108.744 270.948)" fill="#fff" opacity="0.2"/>
      <path id="Shape-2" data-name="Shape" d="M0,7a7,7,0,1,1,7,7A7,7,0,0,1,0,7Z" transform="translate(90.024 270.948)" fill="#fff" opacity="0.2"/>
      <path id="Path-11" data-name="Path" d="M112.548,11.268H0V0H112.548a5.628,5.628,0,0,1,5.628,5.628h0a5.628,5.628,0,0,1-5.628,5.64Z" transform="translate(217.344 125.892)" fill="#6a57ff"/>
      <path id="Path-12" data-name="Path" d="M112.56,11.268H0V0H112.56a5.628,5.628,0,0,1,5.652,5.628h0a5.628,5.628,0,0,1-5.652,5.64Z" transform="translate(181.788 125.892)" fill="#263238"/>
      <rect id="Rectangle-7" data-name="Rectangle" width="7.176" height="163.932" transform="translate(279.228 137.16)" fill="#6a57ff"/>
      <rect id="Rectangle-8" data-name="Rectangle" width="7.176" height="163.932" transform="translate(279.228 137.16)" fill="#fff" opacity="0.7"/>
      <rect id="Rectangle-9" data-name="Rectangle" width="7.176" height="163.932" transform="translate(314.844 137.16)" fill="#6a57ff"/>
      <rect id="Rectangle-10" data-name="Rectangle" width="7.176" height="163.932" transform="translate(314.844 137.16)" fill="#fff" opacity="0.7"/>
      <circle id="Oval-7" data-name="Oval" cx="3.66" cy="3.66" r="3.66" transform="translate(290.688 127.86)" fill="#6a57ff"/>
      <circle id="Oval-8" data-name="Oval" cx="3.66" cy="3.66" r="3.66" transform="translate(274.608 127.86)" fill="#6a57ff"/>
      <circle id="Oval-9" data-name="Oval" cx="3.66" cy="3.66" r="3.66" transform="translate(258.528 127.86)" fill="#6a57ff"/>
      <circle id="Oval-10" data-name="Oval" cx="3.66" cy="3.66" r="3.66" transform="translate(242.448 127.86)" fill="#6a57ff"/>
      <circle id="Oval-11" data-name="Oval" cx="3.66" cy="3.66" r="3.66" transform="translate(226.368 127.86)" fill="#6a57ff"/>
      <circle id="Oval-12" data-name="Oval" cx="3.66" cy="3.66" r="3.66" transform="translate(210.288 127.86)" fill="#6a57ff"/>
      <circle id="Oval-13" data-name="Oval" cx="3.66" cy="3.66" r="3.66" transform="translate(194.208 127.86)" fill="#6a57ff"/>
      <path id="Path-13" data-name="Path" d="M0,0V7.308A3.654,3.654,0,1,0,0,0Z" transform="translate(181.788 127.872)" fill="#6a57ff"/>
      <rect id="Rectangle-11" data-name="Rectangle" width="71.652" height="133.5" rx="4.2" transform="translate(90.576 34.464)" fill="#fff"/>
      <rect id="Rectangle-12" data-name="Rectangle" width="56.34" height="39.804" rx="4.476" transform="translate(98.232 48.72)" fill="#6a57ff" opacity="0.3"/>
      <rect id="Rectangle-13" data-name="Rectangle" width="56.34" height="27.408" rx="4.248" transform="translate(98.232 94.224)" fill="#6a57ff" opacity="0.3"/>
      <path id="Path-14" data-name="Path" d="M9.408,10,0,6.582A10.008,10.008,0,0,1,19.26,8.274Z" transform="translate(105.792 97.998)" fill="#6a57ff"/>
      <path id="Path-15" data-name="Path" d="M10.026,3.42l9.852-1.728a10.392,10.392,0,0,1,.156,1.728,10.02,10.02,0,1,1-20.028,0A9.84,9.84,0,0,1,.618,0Z" transform="translate(105.174 104.58)" fill="#fff"/>
      <rect id="Rectangle-14" data-name="Rectangle" width="3.792" height="11.304" transform="translate(138.756 106.632)" fill="#fff"/>
      <rect id="Rectangle-15" data-name="Rectangle" width="3.792" height="5.292" transform="translate(132.3 112.644)" fill="#fff"/>
      <rect id="Rectangle-16" data-name="Rectangle" width="3.792" height="3.228" transform="translate(132.3 109.416)" fill="#6a57ff"/>
      <rect id="Rectangle-17" data-name="Rectangle" width="3.792" height="6.888" transform="translate(138.756 99.744)" fill="#6a57ff"/>
      <rect id="Rectangle-18" data-name="Rectangle" width="3.792" height="9.24" transform="translate(145.2 108.684)" fill="#fff"/>
      <rect id="Rectangle-19" data-name="Rectangle" width="3.792" height="4.236" transform="translate(145.2 104.448)" fill="#6a57ff"/>
      <path id="Path-16" data-name="Path" d="M1.609,20.07H41.425a1.6,1.6,0,0,0,1.452-2.292A31.2,31.2,0,0,1,40.093,7.086c-.744-8.4-6.432-10.44-8.856,0s-12.108,5.064-16.056.1c-3.672-4.608-9.672.492-15,10.524A1.62,1.62,0,0,0,1.609,20.07Z" transform="translate(104.819 57.15)" fill="#6a57ff"/>
      <path id="Shape-3" data-name="Shape" d="M1.958,11.394a6.673,6.673,0,1,1,4.716,1.95A6.672,6.672,0,0,1,1.958,11.394Z" transform="translate(98.22 129.816)" fill="#263238"/>
      <path id="Shape-4" data-name="Shape" d="M1.955,11.39a6.67,6.67,0,1,1,4.719,1.955A6.671,6.671,0,0,1,1.955,11.39Z" transform="translate(116.316 129.816)" fill="#6a57ff"/>
      <path id="Path-17" data-name="Path" d="M5.76,2.88A2.88,2.88,0,1,1,2.892,0,2.88,2.88,0,0,1,5.76,2.88Z" transform="translate(148.812 151.308)" fill="#6a57ff"/>
      <path id="Path-18" data-name="Path" d="M5.76,2.88A2.88,2.88,0,1,1,2.892,0,2.88,2.88,0,0,1,5.76,2.88Z" transform="translate(136.164 151.308)" fill="#6a57ff" opacity="0.3"/>
      <path id="Path-19" data-name="Path" d="M5.76,2.88A2.88,2.88,0,1,1,2.88,0,2.88,2.88,0,0,1,5.76,2.88Z" transform="translate(123.516 151.308)" fill="#6a57ff"/>
      <path id="Path-20" data-name="Path" d="M5.76,2.88A2.88,2.88,0,1,1,2.88,0,2.88,2.88,0,0,1,5.76,2.88Z" transform="translate(110.868 151.308)" fill="#6a57ff"/>
      <path id="Path-21" data-name="Path" d="M5.76,2.88A2.88,2.88,0,1,1,2.88,0,2.88,2.88,0,0,1,5.76,2.88Z" transform="translate(98.22 151.308)" fill="#6a57ff"/>
      <rect id="Rectangle-20" data-name="Rectangle" width="63.3" height="43.668" transform="translate(231.036 82.236)" fill="#6a57ff"/>
      <rect id="Rectangle-21" data-name="Rectangle" width="11.316" height="16.044" transform="translate(247.212 82.236)" fill="#fff" opacity="0.7"/>
      <rect id="Rectangle-22" data-name="Rectangle" width="19.74" height="43.668" transform="translate(274.608 82.236)" opacity="0.2"/>
      <rect id="Rectangle-23" data-name="Rectangle" width="6.312" height="16.044" transform="translate(281.316 82.236)" fill="#6a57ff" opacity="0.7"/>
      <path id="Shape-5" data-name="Shape" d="M0,9.348V0H9.348V9.348Z" transform="translate(234.972 112.608)" fill="#fff"/>
      <rect id="Rectangle-24" data-name="Rectangle" width="9.348" height="9.348" transform="translate(248.256 112.608)" fill="#263238" opacity="0.4"/>
      <rect id="Rectangle-25" data-name="Rectangle" width="20.448" height="36.444" rx="0.936" transform="translate(40.2 89.448)" fill="#263238"/>
      <path id="Path-22" data-name="Path" d="M.948,0H19.512a.936.936,0,0,1,.936.936V35.5a.936.936,0,0,1-.936.936H.948A.948.948,0,0,1,0,35.484V.924A.936.936,0,0,1,.948,0Z" transform="translate(39.096 89.448)" fill="#6a57ff"/>
      <rect id="Rectangle-26" data-name="Rectangle" width="34.224" height="18.228" rx="0.864" transform="translate(58.452 90.564) rotate(90)" fill="#fff"/>
      <path id="Path-23" data-name="Path" d="M6.6,0H2.832L0,34.224H3.78L6.6,0Z" transform="translate(42.372 90.564)" fill="#6a57ff" opacity="0.2"/>
      <path id="Path-24" data-name="Path" d="M5.268,0H2.82L0,34.224H2.436L5.268,0Z" transform="translate(47.484 90.564)" fill="#6a57ff" opacity="0.2"/>
    </g>
    <g id="freepik--Character--inject-2" transform="translate(40.8 21.6)">
      <path id="Path-25" data-name="Path" d="M31.334,44.4H.986a.936.936,0,0,1-.948-1.2L7.91,1.2A1.476,1.476,0,0,1,9.3,0H39.638a.948.948,0,0,1,.96,1.2l-7.872,42a1.476,1.476,0,0,1-1.392,1.2Z" transform="translate(85.966 74.219)" fill="#6a57ff"/>
      <path id="Path-26" data-name="Path" d="M29.487,41.809H.927a.888.888,0,0,1-.9-1.1l7.4-39.6A1.4,1.4,0,0,1,8.751,0h28.56a.888.888,0,0,1,.9,1.1L30.795,40.7a1.38,1.38,0,0,1-1.308,1.1Z" transform="translate(86.733 75.047)" fill="#fff"/>
      <path id="Path-27" data-name="Path" d="M16.344,5.2l-.264.564-.324.732L15.12,8c-.408,1.044-.792,2.112-1.14,3.2C13.272,13.38,12.612,15.6,12.1,17.88a92.316,92.316,0,0,0-2.184,13.9l-.132,1.68c0,.228,0,.3-.108.108A1.944,1.944,0,0,0,8.9,32.8c-.312-.168-.408-.108-.276,0a6,6,0,0,0,2.172,0,22.236,22.236,0,0,0,3.108-.7,106.116,106.116,0,0,0,13.3-5.22l2.9,4.524a63.72,63.72,0,0,1-13.3,8.4,31.873,31.873,0,0,1-4.044,1.512,14.4,14.4,0,0,1-5.256.612,8.52,8.52,0,0,1-3.792-1.2,7.752,7.752,0,0,1-3.036-3.6A10.008,10.008,0,0,1,0,33.528V31.356a81.6,81.6,0,0,1,1.572-15.72A63.888,63.888,0,0,1,3.6,7.86c.408-1.284.888-2.568,1.392-3.852.264-.636.516-1.272.816-1.92L6.276,1.1c.18-.348.312-.612.576-1.1Z" transform="translate(33.492 71.964)" fill="#b55b52"/>
      <path id="Path-28" data-name="Path" d="M.4,0C1.6,6.3,4.4,20.028,0,24.216c0,0,1.716,6.384,13.4,6.384,12.864,0,6.144-6.384,6.144-6.384-7.008-1.668-6.828-6.876-5.6-11.76Z" transform="translate(56.592 34.404)" fill="#b55b52"/>
      <path id="Path-29" data-name="Path" d="M1.556,7.043S.428,3.443.008,1.343,15.356-.085,20.576,1.259s6.888,7.452,6.888,7.452Z" transform="translate(52.444 53.773)" fill="#263238"/>
      <path id="Path-30" data-name="Path" d="M1.224,0A23.124,23.124,0,0,0,3.108,6,3.684,3.684,0,0,1,0,5.94Z" transform="translate(83.88 32.952)" fill="#a02724"/>
      <path id="Path-31" data-name="Path" d="M.342,2.352a.408.408,0,0,1-.192-.12.492.492,0,0,1,0-.708A4.956,4.956,0,0,1,4.494.06a.492.492,0,0,1,.384.588.5.5,0,0,1-.6.384h0a3.972,3.972,0,0,0-3.42,1.2.492.492,0,0,1-.516.12Z" transform="translate(82.902 24.156)" fill="#263238"/>
      <path id="Path-32" data-name="Path" d="M.052,1.321c-.18.84.12,1.608.672,1.716s1.128-.468,1.308-1.308S1.9.121,1.348.013.22.481.052,1.321Z" transform="translate(84.608 30.035)" fill="#263238"/>
      <path id="Path-33" data-name="Path" d="M0,.43,2.136.274S.78,1.63,0,.43Z" transform="translate(85.704 29.57)" fill="#263238"/>
      <path id="Path-34" data-name="Path" d="M0,24.552H10.6L13.98,0H3.372L0,24.552Z" transform="translate(3 339.516)" fill="#b55b52"/>
      <path id="Path-35" data-name="Path" d="M14.133,0H2.217a.852.852,0,0,0-.852.72L.009,10.14a1.716,1.716,0,0,0,1.7,1.9c4.152-.072,6.156-.324,11.4-.324,3.216,0,7.92.336,12.372.336s4.692-4.4,2.844-4.8C20.013,5.46,18.729,3,15.9.648A2.76,2.76,0,0,0,14.133,0Z" transform="translate(1.275 356.796)" fill="#263238"/>
      <path id="Path-36" data-name="Path" d="M1.752,0H12.36L10.608,12.66H0L1.752,0Z" transform="translate(4.62 339.516)" opacity="0.2"/>
      <path id="Path-37" data-name="Path" d="M7.524.319C3.228,1.687,0,17.911,0,17.911l13.62,12s8.916-15.78,6.324-21.036C17.232,3.439,12.6-1.289,7.524.319Z" transform="translate(35.736 60.809)" fill="#263238"/>
      <path id="Path-38" data-name="Path" d="M55.529,11.375c0,6.8.252,19.452-4.188,42-.8,4.092.792,5.9.072,10.092-.468,2.724-1.992,2.328-2.208,3.6H6.137c0-1.284-1.884-1.968-2.316-4.728-1.008-6.348,2.664-6.876,2.544-10.872-.3-10.08-1.764-21.408-6.18-41.3a7.2,7.2,0,0,1,6-8.748c3.1-.444,6.828-.876,10.6-1.068a137.868,137.868,0,0,1,19.548,0c3.816.348,7.872.948,11.148,1.488A9.6,9.6,0,0,1,55.529,11.375Z" transform="translate(39.799 58.225)" fill="#263238"/>
      <path id="Path-39" data-name="Path" d="M7.51,7.2c-.276,3.024-.084,6.432-.564,10.284C-.17,13.884-1.154,4.668,1.03,0A30.9,30.9,0,0,1,7.51,7.2Z" transform="translate(86.174 82.02)" opacity="0.4"/>
      <path id="Path-40" data-name="Path" d="M10.56,0c1.2,4.656,2.5,9.456,3.864,14.124s2.832,9.336,4.548,13.752a67.8,67.8,0,0,0,2.76,6.324,3.036,3.036,0,0,0-1.044-.708c-.708-.252-1.2-.084-1.116,0a4,4,0,0,0,1.752-.72,38.064,38.064,0,0,0,5.28-4.1c1.776-1.572,3.6-3.288,5.28-4.944l4.38,3.12a58.6,58.6,0,0,1-4.128,6.744A35.856,35.856,0,0,1,26.58,39.84a16.344,16.344,0,0,1-2,1.464,11.088,11.088,0,0,1-2.844,1.284,7.464,7.464,0,0,1-4.8-.228,7.788,7.788,0,0,1-3.708-3.3,67.2,67.2,0,0,1-3.708-7.2A135.708,135.708,0,0,1,4.056,17.3c-.78-2.4-1.512-4.884-2.172-7.356S.564,5.04,0,2.472Z" transform="translate(86.376 72.54)" fill="#b55b52"/>
      <path id="Path-41" data-name="Path" d="M14.466,3.161c5.568,6.264,7.908,17.676,7.908,17.676L6.306,31.289s-7.944-18-6-23.52C2.862.389,9.042-2.911,14.466,3.161Z" transform="translate(79.134 60.511)" fill="#263238"/>
      <path id="Path-42" data-name="Path" d="M7.671,8.26c.7-2.148-1.428-2.124-.708-6.516C7.215.2,5.871-.464,5.763.352c-.7,4.14-8.844,10.4-4.488,12.4C3.879,13.96,7.671,8.26,7.671,8.26Z" transform="translate(115.701 88.496)" fill="#b55b52"/>
      <path id="Path-43" data-name="Path" d="M10.584,3.451C10.5,1.051,8.64-2.009,6.8,1.8l-.96.744S3.252,2.923,0,7.339l3.48,3.12,1.2-.18A11.4,11.4,0,0,0,9.876,8l.24-.2a2.292,2.292,0,0,0,.756-1.944Z" transform="translate(116.004 91.253)" fill="#b55b52"/>
      <path id="Path-44" data-name="Path" d="M1.251,12.457C-.237,22.873-1.149,27.253,3,33.6c6.18,9.6,19.3,9.12,23.88-.636C31,24.181,32.751,8.617,23.535,2.437A14.4,14.4,0,0,0,1.251,12.457Z" transform="translate(55.833 10.199)" fill="#b55b52"/>
      <path id="Path-45" data-name="Path" d="M31.175,22.224C35.387,19.5,39.839,15.6,39.455,10.3S32.387,0,23.183,0c-12.3,0-11.8,7.992-11.8,7.992-2.4.3-26.3,21.444,3.3,29.652S31.175,22.224,31.175,22.224Z" transform="translate(46.717 8.304)" fill="#263238"/>
      <path id="Path-46" data-name="Path" d="M.884,0s-1.2,2.64-.8,3.84c4.008,1.032,18,1.632,25.044.336a16.368,16.368,0,0,1,3.06-3.8Z" transform="translate(52.444 17.028)" fill="#fff"/>
      <path id="Path-47" data-name="Path" d="M.419,16.716c.636,2.148,24.948,1.008,32.772,0a30,30,0,0,0,5.508-1.3V14.6H35.351S33.191-.024,18.335,0C5.579.084-1.9,8.868.419,16.716Z" transform="translate(51.781 1.584)" fill="#6a57ff"/>
      <path id="Path-48" data-name="Path" d="M14.5.141a46.008,46.008,0,0,0-7.2,0C4.968.885,2.868,1.221,0,5.661l6.42.216S10.6,1.233,14.76,1.2A2.82,2.82,0,0,0,14.5.141Z" transform="translate(58.98 0.759)" fill="#6a57ff"/>
      <path id="Path-49" data-name="Path" d="M.449,15.039H.389a.444.444,0,0,1-.384-.5C1.673,3.807,9.437.135,9.773.039a.444.444,0,0,1,.588.228.432.432,0,0,1-.216.588c-.084,0-7.656,3.6-9.252,13.812a.432.432,0,0,1-.444.372Z" transform="translate(62.995 1.413)" opacity="0.2"/>
      <path id="Path-50" data-name="Path" d="M6.583,2.8A9.6,9.6,0,0,1,6.2,9.315c-1.2,2.7-3.72,2.1-5-.3C0,6.867-.749,2.871,1.2.951S5.791.207,6.583,2.8Z" transform="translate(75.341 26.577)" fill="#b55b52"/>
      <path id="Path-51" data-name="Path" d="M74.76,0S56.088,72.78,42.648,113.8C31.788,146.928,14.4,224.364,14.4,224.364H0s7.776-75.12,16.032-107.892C36.924,33.552,23.316,26.808,43.128,0Z" transform="translate(2.868 125.34)" fill="#6a57ff"/>
      <path id="Path-52" data-name="Path" d="M4.97,0C-1.282,22.8-.8,47.676,1.874,59.868,5.738,46.6,9.6,32.736,13.01,20.268,11.834,13.5,8.246,5.64,4.97,0Z" transform="translate(53.182 148.14)" opacity="0.4"/>
      <path id="Path-53" data-name="Path" d="M18.42,7.128H0L.492.66,20.124,0l-1.7,7.128Z" transform="translate(0.972 342.864)" fill="#263238"/>
      <path id="Path-54" data-name="Path" d="M.828,24.552H11.436L10.608,0H0L.828,24.552Z" transform="translate(73.512 339.492)" fill="#b55b52"/>
      <path id="Path-55" data-name="Path" d="M14.123,0H2.207a.828.828,0,0,0-.84.72L.011,10.14a1.7,1.7,0,0,0,1.692,1.9c4.152-.072,6.156-.324,11.4-.324,3.216,0,7.932.336,12.384.336s4.68-4.4,2.832-4.8C20,5.46,18.719,3,15.9.648A2.8,2.8,0,0,0,14.123,0Z" transform="translate(71.665 356.796)" fill="#263238"/>
      <path id="Path-56" data-name="Path" d="M0,0H10.608l.42,12.66H.42L0,0Z" transform="translate(73.512 339.492)" opacity="0.2"/>
      <path id="Path-57" data-name="Path" d="M36.858,0s0,72.78-2.868,113.8c-2.34,33.132.18,110.568.18,110.568H19.71S8.178,149.244,8.01,116.472C7.59,33.552-7.758,26.808,5.166,0Z" transform="translate(52.146 125.34)" fill="#6a57ff"/>
      <path id="Path-58" data-name="Path" d="M19.392,7.128H.972L0,.66,19.488,0l-.1,7.128Z" transform="translate(68.904 342.864)" fill="#263238"/>
      <path id="Path-59" data-name="Path" d="M1.977.327.033,4.191c-.144.3.2.6.708.6H45.9c.4,0,.72-.192.744-.432L47.025.507c0-.276-.312-.5-.732-.5H2.685A.792.792,0,0,0,1.977.327Z" transform="translate(43.311 122.481)" fill="#fff"/>
      <path id="Path-60" data-name="Path" d="M1.6,5.544H.4c-.228,0-.408-.12-.4-.264L.553.264C.553.12.769,0,1,0H2.2c.228,0,.408.12.4.264L2.041,5.28C2.053,5.424,1.837,5.544,1.6,5.544Z" transform="translate(49.547 122.148)" fill="#263238"/>
      <path id="Path-61" data-name="Path" d="M1.6,5.544H.4c-.228,0-.408-.12-.4-.264L.553.264C.553.12.769,0,1.009,0h1.2c.228,0,.408.12.4.264L2.053,5.28C2.029,5.424,1.825,5.544,1.6,5.544Z" transform="translate(77.867 122.148)" fill="#263238"/>
    </g>
  </g>
</svg>
