<?xml version="1.0" encoding="UTF-8"?>
<svg width="24px" height="24px" viewBox="0 0 24 24" version="1.1" xmlns="http://www.w3.org/2000/svg" xmlns:xlink="http://www.w3.org/1999/xlink">
    <title>Icons / Sidebar / Users-Active</title>
    <g id="Icons-/-Sidebar-/-Users-Active" stroke="none" stroke-width="1" fill="none" fill-rule="evenodd">
        <path d="M14.94003,11.7579 C16.61106,10.4961 17.28813,8.3073 16.62186,6.3228 C15.95559,4.3374 14.09493,3 12,3 C9.90507,3 8.04441,4.3374 7.37814,6.3228 C6.71187,8.3073 7.38894,10.4961 9.05997,11.7579 C5.43621,13.0098 3.00369,16.419 3,20.2503 L3,21 L21,21 L21,20.2503 C20.99631,16.419 18.56379,13.0098 14.94003,11.7579 Z M12,4.5102 C13.86399,4.5102 15.375,6.0204 15.375,7.8834 C15.375,9.7464 13.86399,11.2557 12,11.2557 C10.13601,11.2557 8.625,9.7464 8.625,7.8834 C8.62914,6.0222 10.13772,4.5147 12,4.5102 Z M4.53747,19.5006 C4.92402,15.6567 8.1714,12.7362 12.03753,12.7551 C15.90357,12.7362 19.15095,15.6567 19.5375,19.5006 L4.53747,19.5006 Z" id="Shape" fill="#FFFFFF"></path>
        <path d="M12,4.5102 C13.86399,4.5102 15.375,6.0204 15.375,7.8834 C15.375,9.7464 13.86399,11.2557 12,11.2557 C10.13601,11.2557 8.625,9.7464 8.625,7.8834 C8.62914,6.0222 10.13772,4.5147 12,4.5102 Z" id="Path" fill="#FFFFFF" opacity="0.200000003"></path>
        <path d="M4.53747,19.5006 C4.92402,15.6567 8.1714,12.7362 12.03753,12.7551 C15.90357,12.7362 19.15095,15.6567 19.5375,19.5006 L4.53747,19.5006 Z" id="Path" fill="#FFFFFF" opacity="0.200000003"></path>
    </g>
</svg>