<?xml version="1.0" encoding="UTF-8"?>
<svg width="24px" height="24px" viewBox="0 0 24 24" version="1.1" xmlns="http://www.w3.org/2000/svg" xmlns:xlink="http://www.w3.org/1999/xlink">
    <title>Icons / Sidebar / Gateways-Active</title>
    <g id="Icons-/-Sidebar-/-Gateways-Active" stroke="none" stroke-width="1" fill="none" fill-rule="evenodd">
        <polygon id="Path" fill="#FFFFFF" opacity="0.200000003" points="3.42857143 18.7142857 20.5714286 18.7142857 20.5714286 13 3.42857143 13"></polygon>
        <path d="M21.2857143,11.5714286 C21.68,11.5714286 22,11.8914286 22,12.2857143 L22,19.4285714 C22,19.8228571 21.68,20.1428571 21.2857143,20.1428571 L2.71428571,20.1428571 C2.32,20.1428571 2,19.8228571 2,19.4285714 L2,12.2857143 C2,11.8914286 2.32,11.5714286 2.71428571,11.5714286 L21.2857143,11.5714286 Z M20.5714286,13 L3.42857143,13 L3.42857143,18.7142857 L20.5714286,18.7142857 L20.5714286,13 Z M15.5,15 L15.5,17 L12.5,17 L12.5,15 L15.5,15 Z M11.5,15 L11.5,17 L8.5,17 L8.5,15 L11.5,15 Z M7.5,15 L7.5,17 L4.5,17 L4.5,15 L7.5,15 Z M19.5,15 L19.5,17 L16.5,17 L16.5,15 L19.5,15 Z M15.0328571,8.53714286 C15.3114286,8.81571429 15.3114286,9.26857143 15.0328571,9.54714286 C14.8928571,9.68714286 14.71,9.75714286 14.5285714,9.75714286 C14.3457143,9.75714286 14.1628571,9.68714286 14.0228571,9.54714286 C12.9585714,8.48142857 11.0457143,8.47857143 9.97571429,9.54714286 C9.69714286,9.82571429 9.24428571,9.82571429 8.96571429,9.54714286 C8.68714286,9.26857143 8.68714286,8.81571429 8.96571429,8.53714286 C10.57,6.93285714 13.4342857,6.93571429 15.0328571,8.53714286 Z M12,3 C14.2914286,3 16.4442857,3.89142857 18.0614286,5.50857143 C18.34,5.78714286 18.34,6.24 18.0614286,6.51857143 C17.9228571,6.65857143 17.74,6.72857143 17.5571429,6.72857143 C17.3742857,6.72857143 17.1914286,6.65857143 17.0514286,6.52 C15.7042857,5.17142857 13.91,4.42857143 12,4.42857143 C10.0914286,4.42857143 8.29714286,5.17142857 6.94714286,6.51857143 C6.66857143,6.79714286 6.21571429,6.79714286 5.93714286,6.51857143 C5.65857143,6.24 5.65857143,5.78714286 5.93714286,5.50857143 C7.55714286,3.89142857 9.70857143,3 12,3 Z" id="Combined-Shape" fill="#FFFFFF"></path>
    </g>
</svg>