<?xml version="1.0" encoding="UTF-8"?>
<svg width="24px" height="24px" viewBox="0 0 24 24" version="1.1" xmlns="http://www.w3.org/2000/svg" xmlns:xlink="http://www.w3.org/1999/xlink">
    <title>Icons / Utility / Deactivate</title>
    <g id="Icons-/-Utility-/-Deactivate" stroke="none" stroke-width="1" fill="none" fill-rule="evenodd">
        <g id="power_settings_new-24px">
            <polygon id="Path" points="0 0 24 0 24 24 0 24"></polygon>
            <path d="M12.0017959,3 C11.4519057,3 11.0019955,3.4499102 11.0019955,3.99980045 L11.0019955,11.9982041 C11.0019955,12.5480943 11.4519057,12.9980045 12.0017959,12.9980045 C12.5516862,12.9980045 13.0015964,12.5480943 13.0015964,11.9982041 L13.0015964,3.99980045 C13.0015964,3.4499102 12.5516862,3 12.0017959,3 Z M17.1407703,5.85942929 C16.7508481,6.24935146 16.7608461,6.85922974 17.1307723,7.24915191 C18.2605468,8.44891245 18.9604071,10.0485932 19.0003991,11.81824 C19.0903811,15.6474757 15.9210137,18.9468172 12.091778,18.9868092 C8.18255823,19.0467972 5.00319279,15.8974258 5.00319279,11.9982041 C5.00319279,10.1585712 5.71305111,8.48890447 6.87281964,7.23915391 C7.2427458,6.84923173 7.2427458,6.23935346 6.86282163,5.85942929 C6.46290145,5.45950911 5.81303116,5.46950711 5.43310699,5.8794253 C3.98339634,7.41911799 3.07357793,9.46870891 3.00359189,11.7382559 C2.86361983,16.6172821 6.83282762,20.83644 11.7118538,20.9864101 C16.8108361,21.1463782 21,17.0571943 21,11.988206 C21,9.61867898 20.0801836,7.47910602 18.5804829,5.8794253 C18.2005587,5.46950711 17.5406904,5.45950911 17.1407703,5.85942929 L17.1407703,5.85942929 Z" id="Shape" fill="#B1B1C7"></path>
        </g>
    </g>
</svg>