<?xml version="1.0" encoding="UTF-8"?>
<svg width="24px" height="24px" viewBox="0 0 24 24" version="1.1" xmlns="http://www.w3.org/2000/svg" xmlns:xlink="http://www.w3.org/1999/xlink">
    <title>Icons / search / default</title>
    <g id="Icons-/-search-/-default" stroke="none" stroke-width="1" fill="none" fill-rule="evenodd">
        <g id="Alert-Copy-8" transform="translate(3.000000, 3.000000)" fill="#B1B1C7">
            <path d="M7.25000403,0 C11.2540795,0 14.5000216,3.24594203 14.5000216,7.25000403 C14.5000216,8.98187961 13.8927912,10.5719241 12.8796155,11.8188389 L17.7803886,16.7197469 C18.0732038,17.0125621 18.0732038,17.4874924 17.7803886,17.7803076 C17.5140334,18.0466628 17.0974232,18.0708278 16.803798,17.8529377 L16.7196929,17.7803076 L11.8187849,12.8795345 C10.5719241,13.8927102 8.98187961,14.5000756 7.25000403,14.5000756 C3.24594203,14.5000756 0,11.2540795 0,7.25000403 C0,3.24594203 3.24594203,0 7.25000403,0 Z M7.25000403,1.49999944 C4.07437005,1.49999944 1.49999944,4.07437005 1.49999944,7.25000403 C1.49999944,10.4256515 4.07437005,12.9999546 7.25000403,12.9999546 C10.4256515,12.9999546 13.0000356,10.4256515 13.0000356,7.25000403 C13.0000356,4.07437005 10.4256515,1.49999944 7.25000403,1.49999944 Z" id="Shape"></path>
        </g>
    </g>
</svg>