<?xml version="1.0" encoding="UTF-8"?>
<svg width="24px" height="24px" viewBox="0 0 24 24" version="1.1" xmlns="http://www.w3.org/2000/svg" xmlns:xlink="http://www.w3.org/1999/xlink">
    <title>Icons / Sensor-type / Temperature</title>
    <g id="Icons-/-Sensor-type-/-Temperature" stroke="none" stroke-width="1" fill="none" fill-rule="evenodd">
        <g id="Temperature" transform="translate(5.000000, 2.000000)" fill="#B1B1C7">
            <path d="M12,18 L12,17.899 C13.2372,16.6364 14,14.9073 14,13 C14,11.0927 13.2372,9.3636 12,8.101 L12,5 C12,2.23858 9.7614,0 7,0 C4.23858,0 2,2.23858 2,5 L2,8.101 C0.76281,9.3636 0,11.0927 0,13 C0,14.9073 0.76281,16.6364 2,17.899 L2,18 L2.10102,18 C3.36355,19.2372 5.0927,20 7,20 C8.9073,20 10.6364,19.2372 11.899,18 L12,18 Z M3.42848,9.5008 L4,8.9176 L4,5 C4,3.34315 5.3431,2 7,2 C8.6569,2 10,3.34315 10,5 L10,8.9176 L10.5715,9.5008 C11.4572,10.4047 12,11.637 12,13 C12,14.363 11.4572,15.5953 10.5715,16.4992 L10.5357,16.5357 L10.4992,16.5715 C9.5953,17.4572 8.363,18 7,18 C5.637,18 4.40467,17.4572 3.50082,16.5715 L3.46427,16.5357 L3.42848,16.4992 C2.54277,15.5953 2,14.363 2,13 C2,11.637 2.54277,10.4047 3.42848,9.5008 Z M6,5 C6,4.44769 6.4477,4 7,4 C7.5523,4 8,4.44769 8,5 L8,10.1707 C9.1652,10.5825 10,11.6938 10,13 C10,14.6569 8.6569,16 7,16 C5.3431,16 4,14.6569 4,13 C4,11.6938 4.83478,10.5825 6,10.1707 L6,5 Z M7,14 C7.5523,14 8,13.5523 8,13 C8,12.4477 7.5523,12 7,12 C6.4477,12 6,12.4477 6,13 C6,13.5523 6.4477,14 7,14 Z" id="Shape"></path>
        </g>
    </g>
</svg>